<svg xmlns="http://www.w3.org/2000/svg" viewBox="0 0 400 300"><rect width="400" height="300" fill="#3d6cc4"/><g opacity=".13" fill="#fff"><rect x="0" y="0" width="20" height="300"/><rect x="40" y="0" width="20" height="300"/><rect x="80" y="0" width="20" height="300"/><rect x="120" y="0" width="20" height="300"/><rect x="160" y="0" width="20" height="300"/><rect x="200" y="0" width="20" height="300"/><rect x="240" y="0" width="20" height="300"/><rect x="280" y="0" width="20" height="300"/><rect x="320" y="0" width="20" height="300"/><rect x="360" y="0" width="20" height="300"/><rect x="0" y="0" width="400" height="20"/><rect x="0" y="40" width="400" height="20"/><rect x="0" y="80" width="400" height="20"/><rect x="0" y="120" width="400" height="20"/><rect x="0" y="160" width="400" height="20"/><rect x="0" y="200" width="400" height="20"/><rect x="0" y="240" width="400" height="20"/><rect x="0" y="280" width="400" height="20"/></g><ellipse cx="203" cy="160" rx="118" ry="106.2" fill="#000" opacity=".15"/><circle cx="200" cy="150" r="118" fill="#f4f4ef"/><circle cx="200" cy="150" r="100" fill="#fbfbf7"/><circle cx="200" cy="150" r="114" fill="none" stroke="#2a4d9b" stroke-width="3"/><circle cx="200" cy="150" r="88" fill="#f2d36b"/><rect x="249" y="205" width="22" height="3" rx="1.5" fill="#e0a93a" transform="rotate(46 249 205)"/><rect x="146" y="152" width="21" height="3" rx="1.5" fill="#e0a93a" transform="rotate(142 146 152)"/><rect x="211" y="157" width="22" height="3" rx="1.5" fill="#e0a93a" transform="rotate(78 211 157)"/><rect x="200" y="146" width="18" height="3" rx="1.5" fill="#e0a93a" transform="rotate(130 200 146)"/><rect x="210" y="227" width="23" height="3" rx="1.5" fill="#e0a93a" transform="rotate(6 210 227)"/><rect x="258" y="159" width="23" height="3" rx="1.5" fill="#e0a93a" transform="rotate(69 258 159)"/><rect x="211" y="201" width="14" height="3" rx="1.5" fill="#e0a93a" transform="rotate(40 211 201)"/><rect x="148" y="171" width="16" height="3" rx="1.5" fill="#e0a93a" transform="rotate(42 148 171)"/><rect x="211" y="203" width="17" height="3" rx="1.5" fill="#e0a93a" transform="rotate(4 211 203)"/><rect x="231" y="99" width="20" height="3" rx="1.5" fill="#e0a93a" transform="rotate(33 231 99)"/><rect x="274" y="147" width="15" height="3" rx="1.5" fill="#e0a93a" transform="rotate(60 274 147)"/><rect x="188" y="84" width="23" height="3" rx="1.5" fill="#e0a93a" transform="rotate(76 188 84)"/><rect x="232" y="93" width="17" height="3" rx="1.5" fill="#e0a93a" transform="rotate(106 232 93)"/><rect x="254" y="100" width="19" height="3" rx="1.5" fill="#e0a93a" transform="rotate(106 254 100)"/><rect x="238" y="158" width="22" height="3" rx="1.5" fill="#e0a93a" transform="rotate(75 238 158)"/><rect x="228" y="202" width="21" height="3" rx="1.5" fill="#e0a93a" transform="rotate(121 228 202)"/><rect x="163" y="188" width="19" height="3" rx="1.5" fill="#e0a93a" transform="rotate(140 163 188)"/><rect x="150" y="143" width="19" height="3" rx="1.5" fill="#e0a93a" transform="rotate(5 150 143)"/><rect x="265" y="168" width="24" height="3" rx="1.5" fill="#e0a93a" transform="rotate(107 265 168)"/><rect x="174" y="170" width="19" height="3" rx="1.5" fill="#e0a93a" transform="rotate(177 174 170)"/><rect x="208" y="92" width="23" height="3" rx="1.5" fill="#e0a93a" transform="rotate(42 208 92)"/><rect x="122" y="143" width="20" height="3" rx="1.5" fill="#e0a93a" transform="rotate(83 122 143)"/><rect x="193" y="209" width="24" height="3" rx="1.5" fill="#e0a93a" transform="rotate(1 193 209)"/><rect x="215" y="79" width="23" height="3" rx="1.5" fill="#e0a93a" transform="rotate(133 215 79)"/><rect x="221" y="96" width="20" height="3" rx="1.5" fill="#e0a93a" transform="rotate(77 221 96)"/><rect x="270" y="176" width="20" height="3" rx="1.5" fill="#e0a93a" transform="rotate(36 270 176)"/><rect x="144" y="148" width="18" height="3" rx="1.5" fill="#e0a93a" transform="rotate(62 144 148)"/><rect x="139" y="135" width="20" height="3" rx="1.5" fill="#e0a93a" transform="rotate(82 139 135)"/><rect x="238" y="157" width="16" height="3" rx="1.5" fill="#e0a93a" transform="rotate(105 238 157)"/><rect x="246" y="95" width="22" height="3" rx="1.5" fill="#e0a93a" transform="rotate(147 246 95)"/><rect x="198" y="223" width="21" height="3" rx="1.5" fill="#e0a93a" transform="rotate(15 198 223)"/><rect x="210" y="151" width="22" height="3" rx="1.5" fill="#e0a93a" transform="rotate(45 210 151)"/><rect x="249" y="190" width="17" height="3" rx="1.5" fill="#e0a93a" transform="rotate(13 249 190)"/><rect x="231" y="199" width="16" height="3" rx="1.5" fill="#e0a93a" transform="rotate(49 231 199)"/><rect x="187" y="98" width="17" height="3" rx="1.5" fill="#e0a93a" transform="rotate(85 187 98)"/><rect x="249" y="157" width="18" height="3" rx="1.5" fill="#e0a93a" transform="rotate(34 249 157)"/><rect x="259" y="198" width="19" height="3" rx="1.5" fill="#e0a93a" transform="rotate(38 259 198)"/><rect x="143" y="105" width="14" height="3" rx="1.5" fill="#e0a93a" transform="rotate(3 143 105)"/><rect x="241" y="204" width="16" height="3" rx="1.5" fill="#e0a93a" transform="rotate(127 241 204)"/><rect x="174" y="97" width="16" height="3" rx="1.5" fill="#e0a93a" transform="rotate(176 174 97)"/><rect x="217" y="95" width="16" height="3" rx="1.5" fill="#e0a93a" transform="rotate(117 217 95)"/><rect x="152" y="187" width="17" height="3" rx="1.5" fill="#e0a93a" transform="rotate(114 152 187)"/><rect x="241" y="166" width="24" height="3" rx="1.5" fill="#e0a93a" transform="rotate(158 241 166)"/><rect x="174" y="220" width="17" height="3" rx="1.5" fill="#e0a93a" transform="rotate(169 174 220)"/><rect x="198" y="98" width="17" height="3" rx="1.5" fill="#e0a93a" transform="rotate(2 198 98)"/><rect x="211" y="139" width="22" height="3" rx="1.5" fill="#e0a93a" transform="rotate(173 211 139)"/><rect x="170" y="136" width="23" height="3" rx="1.5" fill="#e0a93a" transform="rotate(175 170 136)"/><rect x="184" y="95" width="18" height="3" rx="1.5" fill="#e0a93a" transform="rotate(62 184 95)"/><rect x="218" y="213" width="18" height="3" rx="1.5" fill="#e0a93a" transform="rotate(35 218 213)"/><rect x="252" y="190" width="17" height="3" rx="1.5" fill="#e0a93a" transform="rotate(90 252 190)"/><rect x="166" y="216" width="23" height="3" rx="1.5" fill="#e0a93a" transform="rotate(3 166 216)"/><rect x="214" y="194" width="24" height="3" rx="1.5" fill="#e0a93a" transform="rotate(141 214 194)"/><rect x="180" y="181" width="21" height="3" rx="1.5" fill="#e0a93a" transform="rotate(151 180 181)"/><rect x="243" y="131" width="23" height="3" rx="1.5" fill="#e0a93a" transform="rotate(124 243 131)"/><rect x="121" y="158" width="16" height="3" rx="1.5" fill="#e0a93a" transform="rotate(131 121 158)"/><rect x="228" y="167" width="23" height="3" rx="1.5" fill="#e0a93a" transform="rotate(38 228 167)"/><rect x="204" y="88" width="22" height="3" rx="1.5" fill="#e0a93a" transform="rotate(66 204 88)"/><rect x="177" y="186" width="23" height="3" rx="1.5" fill="#e0a93a" transform="rotate(109 177 186)"/><rect x="272" y="129" width="15" height="3" rx="1.5" fill="#e0a93a" transform="rotate(99 272 129)"/><rect x="213" y="160" width="15" height="3" rx="1.5" fill="#e0a93a" transform="rotate(156 213 160)"/><rect x="217" y="79" width="17" height="3" rx="1.5" fill="#e0a93a" transform="rotate(111 217 79)"/><rect x="210" y="102" width="20" height="3" rx="1.5" fill="#e0a93a" transform="rotate(40 210 102)"/><rect x="236" y="170" width="23" height="3" rx="1.5" fill="#e0a93a" transform="rotate(102 236 170)"/><rect x="248" y="125" width="17" height="3" rx="1.5" fill="#e0a93a" transform="rotate(142 248 125)"/><rect x="204" y="142" width="21" height="3" rx="1.5" fill="#e0a93a" transform="rotate(17 204 142)"/><rect x="256" y="200" width="14" height="3" rx="1.5" fill="#e0a93a" transform="rotate(43 256 200)"/><rect x="252" y="146" width="15" height="3" rx="1.5" fill="#e0a93a" transform="rotate(30 252 146)"/><rect x="204" y="219" width="15" height="3" rx="1.5" fill="#e0a93a" transform="rotate(164 204 219)"/><rect x="143" y="205" width="23" height="3" rx="1.5" fill="#e0a93a" transform="rotate(53 143 205)"/><rect x="199" y="205" width="15" height="3" rx="1.5" fill="#e0a93a" transform="rotate(117 199 205)"/><path d="M270 130 q6 -5 12 0" stroke="#fff8e6" stroke-width="4" fill="none" stroke-linecap="round"/><path d="M220 158 q6 -5 12 0" stroke="#fff8e6" stroke-width="4" fill="none" stroke-linecap="round"/><path d="M233 95 q6 -5 12 0" stroke="#fff8e6" stroke-width="4" fill="none" stroke-linecap="round"/><path d="M180 114 q6 -5 12 0" stroke="#fff8e6" stroke-width="4" fill="none" stroke-linecap="round"/><path d="M154 114 q6 -5 12 0" stroke="#fff8e6" stroke-width="4" fill="none" stroke-linecap="round"/><path d="M174 135 q6 -5 12 0" stroke="#fff8e6" stroke-width="4" fill="none" stroke-linecap="round"/><path d="M157 170 q6 -5 12 0" stroke="#fff8e6" stroke-width="4" fill="none" stroke-linecap="round"/><path d="M187 76 q6 -5 12 0" stroke="#fff8e6" stroke-width="4" fill="none" stroke-linecap="round"/><path d="M253 133 q6 -5 12 0" stroke="#fff8e6" stroke-width="4" fill="none" stroke-linecap="round"/><path d="M163 163 q6 -5 12 0" stroke="#fff8e6" stroke-width="4" fill="none" stroke-linecap="round"/><path d="M212 153 q6 -5 12 0" stroke="#fff8e6" stroke-width="4" fill="none" stroke-linecap="round"/><path d="M159 159 q6 -5 12 0" stroke="#fff8e6" stroke-width="4" fill="none" stroke-linecap="round"/><path d="M148 198 q6 -5 12 0" stroke="#fff8e6" stroke-width="4" fill="none" stroke-linecap="round"/><path d="M145 141 q6 -5 12 0" stroke="#fff8e6" stroke-width="4" fill="none" stroke-linecap="round"/><path d="M201 162 q6 -5 12 0" stroke="#fff8e6" stroke-width="4" fill="none" stroke-linecap="round"/><path d="M187 175 q6 -5 12 0" stroke="#fff8e6" stroke-width="4" fill="none" stroke-linecap="round"/><path d="M125 145 q6 -5 12 0" stroke="#fff8e6" stroke-width="4" fill="none" stroke-linecap="round"/><path d="M185 122 q6 -5 12 0" stroke="#fff8e6" stroke-width="4" fill="none" stroke-linecap="round"/><path d="M253 108 q6 -5 12 0" stroke="#fff8e6" stroke-width="4" fill="none" stroke-linecap="round"/><path d="M193 79 q6 -5 12 0" stroke="#fff8e6" stroke-width="4" fill="none" stroke-linecap="round"/><path d="M205 84 q6 -5 12 0" stroke="#fff8e6" stroke-width="4" fill="none" stroke-linecap="round"/><path d="M155 209 q6 -5 12 0" stroke="#fff8e6" stroke-width="4" fill="none" stroke-linecap="round"/><ellipse cx="204" cy="201" rx="7" ry="5" fill="#2b2a2a"/><ellipse cx="163" cy="190" rx="7" ry="5" fill="#2b2a2a"/><ellipse cx="187" cy="137" rx="7" ry="5" fill="#2b2a2a"/><ellipse cx="264" cy="155" rx="7" ry="5" fill="#2b2a2a"/><ellipse cx="198" cy="184" rx="7" ry="5" fill="#2b2a2a"/><ellipse cx="248" cy="149" rx="7" ry="5" fill="#2b2a2a"/><ellipse cx="225" cy="109" rx="7" ry="5" fill="#2b2a2a"/><circle cx="202" cy="176" r="2" fill="#3f8a3a"/><circle cx="174" cy="170" r="2" fill="#3f8a3a"/><circle cx="247" cy="171" r="2" fill="#3f8a3a"/><circle cx="264" cy="114" r="2" fill="#3f8a3a"/><circle cx="204" cy="112" r="2" fill="#3f8a3a"/><circle cx="158" cy="140" r="2" fill="#3f8a3a"/><circle cx="212" cy="174" r="2" fill="#3f8a3a"/><circle cx="218" cy="227" r="2" fill="#3f8a3a"/><circle cx="235" cy="85" r="2" fill="#3f8a3a"/><circle cx="211" cy="116" r="2" fill="#3f8a3a"/><circle cx="176" cy="210" r="2" fill="#3f8a3a"/><circle cx="191" cy="75" r="2" fill="#3f8a3a"/><circle cx="218" cy="133" r="2" fill="#3f8a3a"/><circle cx="147" cy="109" r="2" fill="#3f8a3a"/><circle cx="165" cy="149" r="2" fill="#3f8a3a"/><circle cx="176" cy="154" r="2" fill="#3f8a3a"/><circle cx="270" cy="120" r="2" fill="#3f8a3a"/><circle cx="157" cy="137" r="2" fill="#3f8a3a"/><circle cx="252" cy="116" r="2" fill="#3f8a3a"/><circle cx="256" cy="99" r="2" fill="#3f8a3a"/><circle cx="147" cy="147" r="2" fill="#3f8a3a"/><circle cx="156" cy="119" r="2" fill="#3f8a3a"/><circle cx="224" cy="188" r="2" fill="#3f8a3a"/><circle cx="207" cy="134" r="2" fill="#3f8a3a"/><circle cx="262" cy="169" r="2" fill="#3f8a3a"/><circle cx="189" cy="209" r="2" fill="#3f8a3a"/><circle cx="153" cy="159" r="2" fill="#3f8a3a"/><circle cx="236" cy="149" r="2" fill="#3f8a3a"/><circle cx="168" cy="169" r="2" fill="#3f8a3a"/><circle cx="171" cy="118" r="2" fill="#3f8a3a"/></svg>